<svg xmlns="http://www.w3.org/2000/svg" viewBox="-31.0 -36.0 62.0 62.0" width="186">
  <style>
    g.sym { stroke:#3f3f3f; fill:none; stroke-linecap:round; stroke-linejoin:round }
    g.sym text { stroke:none; fill:#3f3f3f }
    @media (prefers-color-scheme: dark) {
      g.sym { stroke:#c9c9c9 }
      g.sym text { fill:#c9c9c9 }
    }
  </style>
  <g class="sym">
    <line x1="-20.0" y1="15.5" x2="-20.0" y2="20.0" stroke-width="1.0"/>
    <line x1="0.0" y1="15.5" x2="0.0" y2="20.0" stroke-width="1.0"/>
    <path d="M -20.00 15.50 A 4.00 2.50 0 0 0 -20.00 10.50" stroke-width="1.0"/>
    <path d="M -0.00 15.50 A 4.00 2.50 0 0 0 0.00 10.50" stroke-width="1.0"/>
    <polyline points="-20.0,10.5 -20.0,8.0 -15.0,8.0 -15.0,3.0 -20.0,3.0 -20.0,0.0 -25.0,-20.0" stroke-width="1.0"/>
    <polyline points="0.0,10.5 0.0,8.0 5.0,8.0 5.0,3.0 0.0,3.0 0.0,0.0 -5.0,-20.0" stroke-width="1.0"/>
    <line x1="20.0" y1="15.5" x2="20.0" y2="20.0" stroke-width="1.0"/>
    <path d="M 20.00 15.50 A 4.00 2.50 0 0 0 20.00 10.50" stroke-width="1.0"/>
    <line x1="-20.0" y1="-30.0" x2="-20.0" y2="-20.0" stroke-width="1.0"/>
    <line x1="-18.0" y1="-26.0" x2="-22.0" y2="-22.0" stroke-width="1.0"/>
    <line x1="-22.0" y1="-26.0" x2="-18.0" y2="-22.0" stroke-width="1.0"/>
    <line x1="20.0" y1="-30.0" x2="20.0" y2="-20.0" stroke-width="1.0"/>
    <line x1="22.0" y1="-26.0" x2="18.0" y2="-22.0" stroke-width="1.0"/>
    <line x1="18.0" y1="-26.0" x2="22.0" y2="-22.0" stroke-width="1.0"/>
    <line x1="0.0" y1="-30.0" x2="0.0" y2="-20.0" stroke-width="1.0"/>
    <line x1="2.0" y1="-26.0" x2="-2.0" y2="-22.0" stroke-width="1.0"/>
    <line x1="-2.0" y1="-26.0" x2="2.0" y2="-22.0" stroke-width="1.0"/>
    <line x1="-22.5" y1="-10.0" x2="17.5" y2="-10.0" stroke-width="0.4" stroke-dasharray="6 4"/>
    <polyline points="20.0,10.5 20.0,8.0 25.0,8.0 25.0,3.0 20.0,3.0 20.0,0.0 15.0,-20.0" stroke-width="1.0"/>
    <line x1="-22.0" y1="-20.0" x2="-18.0" y2="-20.0" stroke-width="1.0"/>
    <line x1="-2.0" y1="-20.0" x2="2.0" y2="-20.0" stroke-width="1.0"/>
    <line x1="18.0" y1="-20.0" x2="22.0" y2="-20.0" stroke-width="1.0"/>
  </g>
</svg>
