<svg xmlns="http://www.w3.org/2000/svg" viewBox="-51.0 -26.0 79.0 52.0" width="167">
  <style>
    g.sym { stroke:#3f3f3f; fill:none; stroke-linecap:round; stroke-linejoin:round }
    g.sym text { stroke:none; fill:#3f3f3f }
    @media (prefers-color-scheme: dark) {
      g.sym { stroke:#c9c9c9 }
      g.sym text { fill:#c9c9c9 }
    }
  </style>
  <g class="sym">
    <polyline points="-5.0,-10.0 0.0,10.0 0.0,20.0" stroke-width="1.0"/>
    <ellipse cx="-40.0" cy="12.0" rx="2.0" ry="2.0" stroke-width="1.0"/>
    <ellipse cx="20.0" cy="-10.0" rx="2.0" ry="2.0" stroke-width="1.0"/>
    <ellipse cx="-20.0" cy="-10.0" rx="2.0" ry="2.0" stroke-width="1.0"/>
    <ellipse cx="0.0" cy="-10.0" rx="2.0" ry="2.0" stroke-width="1.0"/>
    <polyline points="-5.0,-10.0 0.0,10.0 0.0,20.0" stroke-width="1.0"/>
    <polyline points="15.0,-10.0 20.0,10.0 20.0,20.0" stroke-width="1.0"/>
    <polyline points="-25.0,-10.0 -20.0,10.0 -20.0,20.0" stroke-width="1.0"/>
    <line x1="0.0" y1="-20.0" x2="0.0" y2="-12.0" stroke-width="1.0"/>
    <line x1="2.0" y1="-12.0" x2="-2.0" y2="-12.0" stroke-width="1.0"/>
    <line x1="-20.0" y1="-20.0" x2="-20.0" y2="-12.0" stroke-width="1.0"/>
    <line x1="-18.0" y1="-12.0" x2="-22.0" y2="-12.0" stroke-width="1.0"/>
    <line x1="20.0" y1="-20.0" x2="20.0" y2="-12.0" stroke-width="1.0"/>
    <line x1="22.0" y1="-12.0" x2="18.0" y2="-12.0" stroke-width="1.0"/>
    <line x1="15.0" y1="0.0" x2="-40.0" y2="0.0" stroke-width="1.0" stroke-dasharray="6 4"/>
    <line x1="-40.0" y1="10.0" x2="-45.0" y2="-10.0" stroke-width="1.0"/>
  </g>
</svg>
